<svg width="314" height="131" fill="none" xmlns="http://www.w3.org/2000/svg" data-testid="AssetSvg" class="Asset_imgFluid__3h1VT img-fluid imgFluid" aria-label="SG Ind Thumb R"><path fill="#B4D0E7" d="M0 0h314v131H0z"/><mask id="a" mask-type="alpha" maskUnits="userSpaceOnUse" x="0" y="0" width="314" height="131"><path fill="#B9CFE4" d="M0 0h314v131H0z"/></mask><g mask="url(#a)"><path d="M239.924 88.2163c.158 11.6322-2.646 22.5557-7.79 32.9877-1.442 2.923-3.607 5.302-5.06 8.165-2.312 4.565-5.6 8.485-8.488 12.668-4.021 5.814-8.513 11.246-13.418 16.355-2.639 2.747-4.885 5.87-7.358 8.779-1.253 1.474-2.502 2.983-3.962 4.232-1.253 1.074-2.821 1.772-4.225 2.677-6.625 4.288-13.783 7.26-21.566 8.597-3.13.537-6.302.828-9.463 1.141-1.706.168-3.432.231-5.145.193-8.621-.193-17.011-1.685-25.12-4.657-6.843-2.509-13.229-5.877-19.208-10.053-4.811-3.362-9.2145-7.197-13.1375-11.534-8.0285-8.874-14.0779-18.948-17.7483-30.387-1.2387-3.864-2.1019-7.804-2.6633-11.829-.5193-3.73-.6737-7.471-.5088-11.211.1755-3.962.5755-7.9373 1.7475-11.7375.7158-2.3264 1.6562-4.5862 3.0247-6.7056 2.2036-3.4107 3.9651-7.1056 6.0003-10.6251 2.7685-4.7897 5.5932-9.5478 8.4495-14.2884 2.6423-4.3827 5.302-8.7584 8.0569-13.0744 2.161-3.3861 4.617-6.5898 6.691-10.0285 2.035-3.3756 4.944-5.7933 7.902-8.232 4.292-3.5405 8.973-6.481 13.948-8.9373 6.208-3.0668 12.699-5.3582 19.559-6.4284 3.45-.5369 6.937-.9158 10.422-1.1299 3.004-.186 6.042-.221 9.042 0 7.457.5544 14.692 2.2036 21.665 4.9441 6.589 2.5896 12.776 5.9126 18.401 10.2251 3.579 2.744 6.933 5.7301 9.993 9.0741 3.853 4.2143 7.235 8.7478 10.088 13.6814 3.769 6.5126 6.565 13.4287 8.134 20.7975.726 3.4142 1.277 6.8741 1.695 10.3374.238 1.972.042 4.0002.042 6.0038Z" fill="#fff"/><path d="M189.932 63.8081c-2.284 4.3511-4.372 8.5092-6.621 12.5796-3.211 5.8038-6.566 11.5304-9.797 17.3236-.674 1.2071-1.79 1.7054-2.857 2.33-5.154 3.0212-10.323 6.0177-15.471 9.0497-3.435 2.021-6.842 4.084-10.267 6.123-2.126 1.267-4.263 2.519-6.586 3.677.418-.975.73-2.01 1.263-2.916 3.123-5.291 6.299-10.554 9.46-15.8214 2.741-4.5687 5.436-9.1654 8.281-13.6674.537-.8456 1.643-1.3895 2.573-1.9194 5.042-2.8738 10.102-5.7055 15.169-8.5337 4.298-2.4001 8.614-4.7757 12.92-7.1618.575-.3158 1.144-.6281 1.933-1.0632Z" fill="#D01C90"/><path d="M227.825 88.3214c.351 6.7091-1.116 13.1196-2.856 19.5486-1.453 5.372-4.26 10.046-6.699 14.92-2.284 4.568-5.155 8.734-8.523 12.607-4.155 4.783-9.313 8.141-14.724 11.204-1.351.765-2.793 1.365-4.2 2.029-.431.203-.923.312-1.309.572-3.224 2.182-6.979 2.81-10.656 3.621-6.015 1.326-12.113 2.133-18.275 1.947-6.383-.193-12.611-1.186-18.594-3.698-4.537-1.906-8.99-3.958-13.057-6.678-3.105-2.077-5.898-4.621-8.79-7.011-2.912-2.407-5.305-5.298-7.53-8.333-2.733-3.73-4.568-7.895-5.958-12.282-1.133-3.575-2.239-7.161-3.526-10.684-1.05-2.874-1.464-5.818-1.702-8.8394-.474-5.9827.354-11.8883 1.021-17.7939.252-2.2492 1.067-4.4528 1.768-6.6284 1.857-5.7652 4.772-11.0216 7.966-16.1306 1.294-2.0738 2.754-4.0493 4.109-6.088.165-.2456.084-.6421.186-.9474.091-.2702.217-.6176.438-.7474 2.814-1.6387 4.713-4.2844 7.039-6.4495 3.481-3.2387 7.271-5.9617 11.478-8.1337 1.635-.8457 3.239-1.7615 4.909-2.5335 3.028-1.3965 6.274-2.0773 9.53-2.6703 3.846-.6982 7.685-1.4843 11.559-1.958 5.495-.6737 10.997-.7053 16.344 1.0913 3.583 1.2071 7.281 2.1756 10.689 3.7651 5.814 2.7124 11.59 5.5933 16.306 10.1303 2.877 2.7686 5.965 5.3407 8.646 8.2847 2.017 2.2141 3.624 4.8213 5.267 7.3512 3.147 4.8459 5.175 10.19 6.646 15.7517.796 3.0071 1.621 6.0143 2.189 9.0671.348 1.8632.221 3.8107.309 5.7161ZM118.142 50.7862c-5.039 7.0845-9.046 14.4814-11.972 22.5063 2.789.2878 5.386.0176 7.849 1.0106-.691 1.1966-1.347 1.4983-2.512 1.3299-1.73-.2491-3.463-.4597-5.2-.6526-.211-.0211-.593.1438-.642.3017-.569 1.8177-1.267 3.6177-1.587 5.4845-.515 3.0072-.796 6.0529-1.136 9.0882-.344 3.0492-.186 6.074.484 9.0952 2.179-.2632 4.288-.5159 6.397-.779.115-.0141.221-.1299.336-.1614.225-.0597.453-.0913.681-.1334.046.2421.148.4913.123.7264-.137 1.3264-1.098 2.2034-2.481 2.3054-1.544.112-3.088.232-4.856.361 2.239 6.867 3.926 13.71 6.762 20.258 2.41-1.204 4.638-2.285 6.835-3.425.604-.313.877-.162 1.081.403.266.758.228 1.471-.425 2.004-.435.358-.926.67-1.432.926-1.557.783-3.133 1.527-4.73 2.299 3.278 6.744 8.229 11.863 14.32 15.906.555-.832 1.046-1.611 1.579-2.355.608-.849 1.299-1.642 1.878-2.509.786-1.182 1.126-1.252 2.389-.252-.126.263-.235.558-.393.821-.958 1.572-1.986 3.102-2.87 4.709-.674 1.221-.593 1.259.621 2.031 5.341 3.401 10.983 6.166 17.029 8.075.891.28 1.811.473 2.621.684.646-2.344 1.232-4.548 1.881-6.734.102-.337.432-.74.747-.856 1.011-.372 1.636.267 1.383 1.4-.428 1.926-.881 3.846-1.369 5.758-.231.905.092 1.214.972 1.365 4.057.695 8.127 1.112 12.24.762 2.21-.19 4.41-.457 6.719-.699-.102-.719-.196-1.277-.252-1.835-.19-1.891-.414-3.779-.506-5.674-.024-.467.4-.951.614-1.428.13.025.257.049.386.077.562 2.814 1.127 5.629 1.702 8.513.46-.053.902-.077 1.33-.154 2.344-.422 4.702-.79 7.029-1.299 2.305-.509 4.673-.733 6.807-1.989 2.628-1.548 5.393-2.857 8.084-4.292.825-.438 1.608-.961 2.478-1.484-.488-.565-.905-1-1.27-1.474-1.239-1.614-2.481-3.228-3.674-4.874-.235-.323-.481-1.042-.355-1.147.411-.348 1.007-.705 1.499-.667.428.032.873.547 1.21.933 1.607 1.843 3.183 3.713 4.832 5.646 4.807-3.551 8.611-7.797 11.794-12.684-.362-.288-.625-.516-.906-.72-1.744-1.274-3.512-2.523-5.235-3.828-1.004-.758-1.004-1.288-.091-2.372.551.319 1.137.621 1.68.986 1.664 1.123 3.316 2.256 4.955 3.411.565.396.923.41 1.263-.285.727-1.487 1.551-2.926 2.278-4.414 2.116-4.34 5.133-8.26 6.056-13.158.218-1.155.614-2.278.986-3.394.242-.719.032-1.045-.688-1.217-2.161-.516-4.33-1.025-6.463-1.642-.565-.165-1.025-.702-1.53-1.067.607-.4738 1.193-.9756 1.832-1.3966.161-.1088.498.007.74.0631 1.053.2456 2.095.5404 3.155.7509 1.231.2457 2.48.4246 3.814.6496.151-.9162.344-1.6917.4-2.4777.172-2.4773.396-4.9582.403-7.4355.007-3.3335.295-6.6845-.687-9.9689-.632-2.1194-.548-2.1299-2.755-1.965-2.312.1719-4.625.3333-6.941.4491-.351.0176-1.007-.2105-1.017-.3544-.032-.5298 0-1.186.298-1.572.281-.3684.905-.5684 1.407-.6491 2.439-.3965 4.888-.7264 7.358-1.0808-1.631-7.3267-4.617-14.0849-8.67-20.1308-2.256 1.5018-4.365 2.9089-6.478 4.309-.561.3719-1.077.3579-1.466-.2667-.376-.5965-.341-1.0527.301-1.5124 1.706-1.2211 3.362-2.5053 5.032-3.7756 1.046-.7965 1.056-.9579.155-1.9053-2.166-2.2773-4.257-4.6318-6.527-6.7934-1.909-1.8176-4.035-3.4001-6.053-5.102-.53-.4491-.947-.386-1.355.1474-1.368 1.7931-2.751 3.5756-4.112 5.3722-.856 1.1264-1.326 1.2492-2.94.5193 1.719-2.6562 3.414-5.2739 5.105-7.8916-5.769-3.9581-12.408-6.3371-19.478-8.3408-.316 1.3685-.565 2.6458-.912 3.8915-.302 1.0842-.713 2.1369-1.067 3.1721-1.674-.3439-1.741-.4176-1.442-1.8072.098-.4631.333-.8947.449-1.3544.333-1.3159.659-2.6387.926-3.9686.035-.172-.263-.5685-.456-.6071-1.214-.2386-2.439-.4596-3.67-.5895-4.246-.4491-8.457.0562-12.664.572-.302.0351-.593.1228-.912.1895.375 2.1053.708 4.1124 1.101 6.1055.228 1.1439-.719.9896-1.277 1.2422-.709.3228-.712-.3193-.81-.7018-.141-.5544-.225-1.1264-.281-1.6948-.158-1.5054-.288-3.0142-.439-4.5862-.41.0561-.691.0842-.968.1368-2.744.5474-5.502 1.0457-8.232 1.6633-2.864.6456-5.625 1.6106-8.229 3.0001-.698.372-.93.7404-.554 1.5545.744 1.6106 1.354 3.2809 2.024 4.9336-1.368 1.1685-2.073 1-2.68-.6667-.032-.0877-.032-.1895-.067-.2772-.523-1.3124-1.053-2.6282-1.621-4.0494-5.741 3.7301-11.341 7.4215-15.636 12.8323.639.4737 1.126.7825 1.547 1.1614 1.102.9966 2.243 1.9685 3.222 3.0774.315.3579.186 1.1123.259 1.6878-.466.0456-1 .2526-1.386.0947-.621-.2491-1.179-.6913-1.698-1.1334-1.123-.9684-2.207-1.9825-3.383-3.0422Z" fill="#000"/><path d="M214.944 146.721c.912.996.972 1.295-.042 2.189-1.871 1.653-3.878 3.155-5.72 4.839-3.762 3.439-8.092 5.895-12.783 7.811-2.797 1.14-5.537 2.428-8.267 3.723-3.341 1.586-6.878 2.484-10.485 3.102-3.79.649-7.59 1.33-11.415 1.653-4.628.393-9.281.442-13.874-.642-1.379-.327-2.849-.26-4.263-.464-.804-.115-1.586-.393-2.365-.635-1.028-.319-2.036-.726-3.071-1.014-5.586-1.544-10.832-3.863-15.744-6.934-2.4-1.498-4.808-2.996-7.148-4.589-3.169-2.158-5.948-4.783-8.544-7.59-5.229-5.656-9.611-11.945-13.601-18.51-2.544-4.182-4.309-8.719-5.7126-13.393-.8246-2.737-1.6632-5.478-2.2843-8.267-.4386-1.973-.4807-4.032-.7755-6.039-.8842-5.9761-.414-11.9203.2667-17.8714.2772-2.4282.2597-4.8915.4983-7.3232.1228-1.2457.3754-2.5124.8-3.6879.9229-2.5721 1.9826-5.095 3.0072-7.6284 1.1299-2.7967 2.2633-5.5933 3.4352-8.3724.5194-1.2281 1.1264-2.4177 1.7229-3.6107.3299-.6597.8176-.779 1.9681-.593-.424.7825-.9329 1.5404-1.2663 2.3685-.6 1.4703-1.0772 2.9932-1.6386 4.4809-.5264 1.3966-1.1089 2.7686-1.6352 4.1652-.8176 2.172-1.6036 4.3511-2.4072 6.5266-.2982.8071-.6877 1.5896-.8912 2.4177-.2983 1.2246-.5755 2.4738-.6737 3.7265-.2001 2.5369-.1334 5.0985-.4246 7.6249-.5825 5.0424-.8878 10.0847-.5579 15.1481.4421 6.8456 2.0667 13.4256 4.4388 19.8536 2.6387 7.155 6.6249 13.499 11.1509 19.576 4.053 5.443 8.555 10.429 13.861 14.657 1.561 1.242 3.288 2.292 5 3.334 3.723 2.267 7.4 4.625 11.502 6.172 2.408.909 4.853 1.716 7.281 2.569.239.084.509.119.72.249 2.772 1.747 6 1.807 9.063 2.21 3.071.404 6.229.278 9.341.165 5.59-.2 11.011-1.459 16.433-2.765 5.109-1.228 9.902-3.196 14.621-5.421 2.586-1.218 5.302-2.204 7.752-3.646 2.365-1.393 4.463-3.239 6.681-4.881.561-.414 1.147-.796 1.698-1.224 1.435-1.134 2.86-2.278 4.348-3.46Z" fill="#000"/><path d="M167.583 99.6903c1.2 4.3017 1.274 8.6667 1.544 13.0147.113 1.804.488 3.593.713 5.39.112.905-.169 1.091-1.411 1.291-.835.133-.786-.435-.839-.923-.484-4.298-.958-8.593-1.442-12.892-.221-1.961-.459-3.919-.698-5.9403-5.148-.7404-9.818-2.351-12.359-7.6285-1.203.1615-2.544.365-3.895.5123-3.694.4001-7.389.7755-11.088 1.1545-1.017.1053-1.589-.4176-1.902-1.5053.839-.1965 1.621-.4352 2.422-.5545 4.021-.6 8.039-1.207 12.07-1.7193.871-.1123 1.79.1579 2.797.2631.603-4.8774 3.176-8.4565 7.941-10.5198-.32-2.4773-.713-5.0143-.962-7.5653-.316-3.2247-.53-6.4564-.733-9.6917-.018-.2912.396-.8807.54-.8597.428.0632 1.113.2948 1.179.579.334 1.4141.537 2.8598.716 4.3055.249 2.0457.442 4.0984.642 6.1512.197 1.9895.393 3.9791.544 5.9722.049.6421.347.6983.909.7684 1.786.2211 3.561.5159 5.33.8597 1.411.2737 2.214 1.4457 3.148 2.3826 1.652 1.6527 2.593 3.6563 2.761 6.0038.011.1579.046.3158.084.4702.014.0562.07.1018.07.1053 5.467-.7474 10.906-1.4878 16.342-2.2317.122-.0176.242-.0772.368-.0877 1.53-.1228 1.832.1859 1.779 1.8667-1.958.2842-3.919.6211-5.895.8457-3.888.4386-7.779.8281-11.674 1.2071-.618.0596-.835.3333-.8.9158.193 3.1335-2.278 6.7056-5.892 7.3372-.744.1333-1.456.4491-2.309.7228Zm-1.277-19.5062c-2.123.0702-3.765.2948-5.295 1.1439-2.47 1.3685-4.242 3.4177-5.333 5.9266-.818 1.8808-1.825 3.9792.028 5.9442.021.021.031.0561.042.0842.701 2.0176 2.361 3.1545 4.091 4.0528 2.534 1.3159 5.176 1.537 8.015.5895 3.354-1.1228 5.066-3.4914 5.568-6.7231.52-3.3475.091-6.6109-2.453-9.211-.456-.4667-.936-1.0562-1.512-1.2316-1.147-.3439-2.368-.4421-3.151-.5755Z" fill="#000"/></g></svg>