<svg width="314" height="131" fill="none" xmlns="http://www.w3.org/2000/svg" data-testid="AssetSvg" class="Asset_imgFluid__3h1VT img-fluid imgFluid" aria-label="SG Admin Thumb R"><mask id="a" mask-type="alpha" maskUnits="userSpaceOnUse" x="0" y="0" width="314" height="131"><path fill="#00866E" d="M0 0h314v131H0z"/></mask><g mask="url(#a)"><path fill="#00866E" d="M0 0h314v131H0z"/><path d="M261.485 62.8945c-.652.8523-1.23 1.6265-1.824 2.3803-1.854 2.3531-3.687 4.7266-5.589 7.0424-1.321 1.6129-2.822 3.0798-4.102 4.7232-3.378 4.343-6.631 8.7844-10.023 13.1171-2.133 2.7233-4.459 5.2971-6.635 7.9898-2.231 2.7537-4.398 5.5587-6.571 8.3597-3.677 4.734-7.324 9.487-11.012 14.214-4.03 5.165-8.088 10.309-12.142 15.457-3.525 4.475-7.083 8.93-10.591 13.419-3.786 4.845-7.521 9.728-11.294 14.587-3.317 4.275-6.658 8.53-9.979 12.802-1.858 2.39-3.661 4.825-5.562 7.181-1.729 2.146-3.555 4.211-5.338 6.313-.863 1.018-1.725 2.04-2.615 3.1-2.176-.754-4.343-1.508-6.512-2.258-4.89-1.688-9.797-3.324-14.662-5.077-6.048-2.176-12.082-4.407-18.089-6.696-7.158-2.723-14.264-5.575-21.4257-8.285-5.82-2.207-11.7113-4.231-17.528-6.448-3.5993-1.372-7.0797-3.066-10.6858-4.414-4.8964-1.83-9.8676-3.464-14.8013-5.192-5.1104-1.79-10.2139-3.593-15.5042-5.457.8523-1.127 1.5688-2.088 2.2954-3.039 2.7708-3.633 5.5348-7.273 8.3259-10.893 2.8455-3.691 5.725-7.355 8.5875-11.032 2.7266-3.508 5.4227-7.036 8.1765-10.52 1.7657-2.234 3.6163-4.404 5.4261-6.604 2.2309-2.716 4.4618-5.433 6.6893-8.1527 2.2886-2.7911 4.5535-5.6027 6.8726-8.3667 2.5433-3.0288 5.1273-6.0203 7.7182-9.0084 1.2292-1.416 2.5127-2.7878 3.7792-4.1732 2.7742-3.0492 5.5283-6.1188 8.3393-9.1307 2.649-2.8353 5.386-5.5857 8.038-8.421 2.227-2.3803 4.397-4.8149 6.57-7.2495 1.752-1.9661 3.43-3.9966 5.209-5.9389 2.159-2.3599 4.305-4.747 6.611-6.9609 3.087-2.9609 6.323-5.7657 9.491-8.6417.981-.8897 1.915-1.8337 2.933-2.6792.292-.241.846-.4108 1.189-.3089 9.518 2.8387 19.015 5.7453 28.533 8.5806 9.243 2.7538 18.502 5.4431 27.755 8.1595 8.778 2.5739 17.552 5.1477 26.333 7.708 7.002 2.0407 14.01 4.0543 21.008 6.095 4.153 1.1953 8.299 2.4414 12.605 3.7182Z" fill="#fff"/><path d="M141.458 96.9382c-1.307.1834-2.611.3668-3.919.5467-.607.0849-1.222.2751-1.823.2309-1.956-.1392-3.902-.3701-5.854-.5501-1.956-.1799-3.929-.2614-5.871-.5297-3.022-.4176-6.177-.3395-8.845-2.241-.425-.3022-1.053-.309-1.579-.4822-2.445-.798-4.88-1.6435-7.338-2.3973-1.942-.5976-3.912-1.1035-5.875-1.6265-3.059-.8149-6.1184-1.64-9.1914-2.4006-1.3072-.3226-2.6553-.4652-3.9728-.7437-1.6502-.3463-3.3005-.6994-4.9303-1.1273-1.4839-.3905-2.944-.8896-4.4109-1.3446-.3803-.1189-.8149-.1732-1.1273-.3939-1.8133-1.27-3.9219-1.4873-6.0136-1.8846-2.2343-.421-4.2478-1.46-5.8709-3.1069-1.3786-1.3956-1.2836-5.2156 1.3412-6.5467 2.6757-1.3548 5.3888-2.1494 8.3667-1.3582.9983.2649 1.9321.7572 2.91 1.1036.7946.2818 1.5993.5433 2.4177.7504 2.1969.5535 4.4855.8591 6.5874 1.657 2.4889.9474 5.022 1.6401 7.6061 2.2207.8998.2038 1.8234.4075 2.6553.7844 3.8238 1.7283 7.8468 2.7165 11.9698 3.3888.635.1018 1.287.2411 1.864.5093 2.567 1.1851 5.266 1.8778 8.017 2.4856 1.945.4278 3.833 1.1205 5.745 1.7012 1.09.3293 2.17.6825 3.263 1.0051.2.0577.438.0815.635.0271 2.703-.7334 5.08.1189 7.175 1.6978 1.8 1.3548 3.844 2.1596 5.803 3.1749 1.47.764 2.747 1.9083 4.078 2.9235.146.1121.17.5128.109.7403-.265 1.0186-.961 1.6536-1.98 1.8506-.628.1222-1.28.0984-1.925.1392-.004-.0611-.01-.1324-.017-.2038Z" fill="#FFE7AA"/><path d="M155.509 175.634c-.214.292-.411.557-.604.822-5.983-1.922-11.932-3.83-17.875-5.745-.407-.133-.811-.306-1.188-.51-2.815-1.518-5.99-2.122-8.859-3.412-3.847-1.732-7.919-2.717-11.847-4.153-5.956-2.173-11.932-4.292-17.9425-6.312-3.3514-1.128-6.7741-2.038-10.1833-2.982-2.635-.73-5.3073-1.334-7.949-2.037-2.618-.696-5.1851-1.654-7.8404-2.122-4.438-.785-8.421-2.734-12.5263-4.387-.3124-.126-.6146-.279-1.1103-.503-.6248.455-1.3481.228-2.0442-.54 1.1443-1.144 2.3532-2.193 3.3718-3.402 3.073-3.64 6.0713-7.348 9.1036-11.026 1.8607-2.254 3.7521-4.482 5.5959-6.75 3.2597-4.014 6.5263-8.024 9.7317-12.085 3.8506-4.879 7.6197-9.823 11.4668-14.7027 1.3311-1.6876 2.798-3.2666 4.2852-4.9949-1.6638-.4652-3.2733-.9304-4.8896-1.365-2.6757-.7199-5.3616-1.4092-8.0373-2.1324-4.6655-1.2632-9.331-2.5433-13.9932-3.8201-1.0967-.3022-2.2376-.5093-3.2767-.9541-1.1103-.4788-2.1935-1.09-3.1579-1.8201-.9949-.7504-1.2393-1.8947-.8862-3.0933.7538-2.5603 1.8234-4.9711 3.5721-7.0289.9033-1.0662 1.8472-1.4804 3.382-1.022 5.8608 1.7453 11.7861 3.2665 17.6706 4.9405 4.0237 1.1444 8.0135 2.4177 12.0242 3.6095 2.03.6045 4.088 1.1308 6.118 1.7318.649.1935 1.128.0509 1.532-.455 1.304-1.6299 2.553-3.3107 3.928-4.8761 2.887-3.2835 5.769-6.5738 8.781-9.7385 4.245-4.4618 8.673-8.747 12.887-13.2325 2.376-2.5331 4.478-5.3277 6.716-7.9932 1.209-1.4397 2.455-2.8421 3.654-4.2852.298-.3599.431-.8591.74-1.2088.204-.2309.608-.4652.883-.4279 1.976.2615 3.99.4313 5.905.9474 2.247.6044 4.414 1.5212 6.611 2.3192.489.1765.951.4244 1.579.713.76-.8624 1.606-1.7758 2.397-2.7368 1.851-2.2445 3.885-4.2852 6.248-5.9932 1.477-1.0628 3.188-1.202 4.906-1.3684 2.5-.2411 4.86.3701 7.094 1.365 3.582 1.5925 6.56.3022 9.331-1.8234 1.969-1.511 3.674-3.382 5.687-4.8251 3.888-2.7912 8.106-2.8115 12.35-.8285 2.129.9949 3.396 4.2139 2.448 6.4583-.808 1.9151-1.949 3.6876-2.944 5.5246-.057.1087-.139.2038-.2.3124-1.148 2.017-.934 2.8455 1.222 3.6672 2.785 1.0629 5.607 2.0374 8.452 2.927 2.329.7301 3.715 2.4245 4.632 4.472.353.7912.061 1.9321-.112 2.8795-.313 1.7113-1.372 3.0661-2.354 4.4481-.869 1.2224-1.704 2.4652-2.662 3.854 1.077.2785 2.061.5942 3.07.7776 3.069.5603 6.003 1.562 8.93 2.618 1.99.7199 4.078 1.1647 6.129 1.7114.924.2478 1.868.4108 2.785.6859 1.674.4991 1.667.5229 2.811 1.9728.238-.2547.472-.5093.713-.7708.686.6655.594 1.3243.201 2.0407-1.114 2.0306-2.438 3.8914-4.014 5.6129-3.864 4.2207-7.657 8.5127-11.443 12.8047-4.93 5.5891-9.898 11.1409-14.71 16.8284-3.375 3.993-6.529 8.173-9.759 12.292-3.134 3.997-6.23 8.024-9.354 12.031-2.459 3.154-4.968 6.275-7.389 9.456-3.335 4.384-6.588 8.832-9.919 13.219-1.823 2.401-3.799 4.689-5.609 7.097-2.258 3.002-4.445 6.058-6.605 9.131-1.714 2.438-3.344 4.933-5.001 7.409-.673.984-1.562 1.202-2.659.784Zm.428-.978c.064-.078.227-.224.339-.404 1.688-2.676 3.291-5.389 5.267-7.891 3.202-4.054 6.183-8.285 9.283-12.421 1.532-2.044 3.172-4.007 4.68-6.068 2.638-3.603 5.13-7.318 7.833-10.869 3.824-5.022 7.783-9.939 11.688-14.897 4.784-6.071 9.524-12.176 14.383-18.186 2.323-2.873 4.876-5.5555 7.321-8.3297 5.8-6.5908 11.583-13.1952 17.403-19.769 1.551-1.7521 3.246-3.3786 4.818-5.1103.662-.7301 1.175-1.5926 1.691-2.2988-4.16-1.2156-8.204-2.3973-12.248-3.5756-4.031-1.1782-8.061-2.3531-12.193-3.5619-.877 1.1002-1.851 2.3226-2.822 3.5382-.493-.2106-.924-.4517-1.386-.5841-4.876-1.4091-9.769-2.7606-14.631-4.2105-6.041-1.803-12.095-3.5687-18.071-5.5687-5.837-1.9525-11.586-4.1562-17.362-6.2886-1.555-.5739-3.069-1.2734-4.581-1.9627-.254-.1154-.597-.5297-.55-.713.082-.309.415-.7301.693-.7708 1.236-.1834 1.46-1.3005 2.166-1.9287-2.04-.7233-3.925-1.4873-5.87-2.0543-1.916-.5569-3.885-.9304-5.841-1.3379-.268-.0577-.71.0509-.873.2445-1.426 1.691-2.791 3.4363-4.21 5.1341-2.35 2.8081-4.625 5.6876-7.117 8.3599-2.751 2.9439-5.766 5.64-8.571 8.5331-3.511 3.623-6.984 7.2937-10.37 11.0356-2.248 2.4889-4.312 5.1477-6.553 7.8404 2.217.6078 4.234 1.1511 6.248 1.7113 5.304 1.4805 10.608 2.9474 15.901 4.4618 1.375.3939 2.689.7946 3.942 1.725 2.133 1.5823 4.601 2.7028 6.914 4.0441 1.409.8183 2.788 1.6876 4.187 2.5229.652.3905.652 1.0153.573 1.6299-.027.2037-.292.4957-.489.5365-2.234.4414-4.465.9236-6.719 1.2326-2.856.3905-5.732.6349-8.598.9337-.241.0238-.492.0374-.727-.0101-.865-.18-1.728-.3736-2.587-.5807-3.348-.8081-6.716-1.5382-10.037-2.4482-5.522-1.511-11.019-3.1273-16.513-4.7334-.713-.2072-1.168-.146-1.657.472-2.8014 3.5551-5.6571 7.0661-8.4754 10.6114-5.7487 7.232-11.4634 14.489-17.2359 21.704-1.7487 2.187-3.7148 4.204-5.4465 6.401-3.0085 3.82-5.9185 7.715-9.4838 11.052-.5977.561-1.1953 1.124-1.8676 1.756 2.5738.913 4.9406 1.885 7.382 2.584 2.7164.781 5.5144 1.284 8.258 1.966 3.9083.975 7.8098 1.973 11.7011 3.022 3.7114 1.002 7.4295 1.993 11.0968 3.148 4.6653 1.47 9.2833 3.086 13.9153 4.662 2.791.947 5.579 1.912 8.349 2.913 2.428.88 4.819 1.861 7.25 2.734 1.708.611 3.559.903 5.165 1.701 4.336 2.146 9.008 3.297 13.534 4.866 3.627 1.253 7.314 2.309 11.104 3.497Zm3.497-129.3507c2.499.8149 4.802 1.494 7.053 2.309 3.616 1.3073 7.168 2.7979 10.805 4.0441 6.604 2.2581 13.229 4.472 19.894 6.5535 4.904 1.5314 9.878 2.8251 14.832 4.1867.241.0645.689-.129.849-.3463 1.973-2.6757 3.942-5.3549 5.837-8.0849.886-1.2801 1.698-2.635 2.374-4.0373.726-1.5111.363-2.6486-.961-3.4941-.51-.3259-1.118-.5059-1.702-.7029-2.767-.9371-5.551-1.82-8.309-2.7911-1.959-.6893-3.073-2.2139-3.623-4.146-.139-.489-.112-1.1409.102-1.5891.69-1.4398 1.532-2.8082 2.258-4.2275.544-1.0628 1.1-2.1358 1.477-3.2632.408-1.2122.041-2.4516-.706-2.8115-3.745-1.8064-7.562-2.1935-11.195.1155-1.874 1.1918-3.508 2.7775-5.168 4.2784-3.212 2.9134-6.655 4.6859-11.043 2.6757-.587-.2683-1.195-.4958-1.813-.6859-3.025-.927-6.119-1.2326-9.012.1935-1.528.7538-2.862 2.0204-4.088 3.2496-2.058 2.0679-3.959 4.292-5.925 6.4516-.591.6519-1.189 1.3005-1.936 2.1222ZM85.747 75.0471c.8082 3.888-.241 7.0051-2.9847 9.6027.1393.0883.2038.1562.2853.1732 4.8862 1.2461 9.7792 2.4584 14.6587 3.7317 6.2447 1.6333 12.4717 3.3243 18.7097 4.9745 3.952 1.0459 7.905 2.0849 11.874 3.0696 1.066.2649 2.296.0781 3.253.5229.958.4449 1.464.0034 2.122-.3633.136-.0747.272-.1494.394-.2445 1.321-1.0017 2.238-2.2886 2.622-3.9049.285-1.2122-.5-2.8455-1.406-3.1001-1.419-.3973-2.835-.798-4.248-1.2055-4.404-1.2665-8.818-2.5025-13.209-3.8098-8.051-2.3973-16.088-4.8489-24.1389-7.2495-2.618-.7742-5.2597-1.4567-7.9321-2.197Zm-15.2597 6.6214c.9644.2513 1.888.4584 2.7878.7334.6655.2004 1.2292.0713 1.8336-.2309 1.9151-.9609 3.0255-2.6451 4.0883-4.387.6248-1.0255.7844-2.1596.5059-3.287-.1256-.5025-.5263-1.1443-.9677-1.3174-1.4601-.5875-2.9915-.9916-4.5229-1.4737.2275 4.1052-.6587 6.4821-3.725 9.9626Zm6.1596 1.6231c.6622.163 1.2224.2309 1.725.4414 1.2597.5297 2.2037.1086 3.1918-.7233 2.1664-1.8166 3.4126-4.0984 3.7351-6.876.0476-.3939-.2411-1.1103-.5365-1.2122-1.545-.5433-3.1443-.9372-4.7979-1.4024 1.6876 4.5569-.4856 7.9592-3.3175 9.7725Zm-10.3361-2.6723c1.5144-.0204 2.5365-.5535 3.3005-1.5009 1.7351-2.1494 2.438-4.73 2.91-7.382.129-.73-.5671-1.1918-1.2462-.8726-.2954.1392-.584.3531-.8013.601-1.8812 2.129-3.2088 4.5738-4.034 7.2835-.1664.5501-.0883 1.1783-.129 1.871Zm70.9302 9.7826c0 1.3786.166 2.601-.048 3.7555-.21 1.1273-.808 2.1867-1.239 3.2903 1.796-.2445 3.62-.4889 5.44-.7538.149-.0204.322-.1596.404-.292.316-.523.662-1.0425.869-1.6129.105-.2954.071-.8795-.119-1.0085-1.728-1.1579-3.504-2.2445-5.307-3.3786Z" fill="#000"/><path d="M168.059 41.4344c2.401.7029 4.679 1.3208 6.927 2.0339 3.46 1.1002 6.91 2.2309 10.34 3.416 5.989 2.0645 11.949 4.2037 17.942 6.258 2.003.6859 4.071 1.185 6.102 1.7996 1.039.3158 1.351.8863 1.191 2.0713-1.409-.4414-2.818-.859-4.213-1.3174-3.393-1.1138-6.764-2.2853-10.17-3.3617-6.455-2.0475-12.927-4.0407-19.389-6.0678-2.17-.6826-4.336-1.3786-6.499-2.0951-1.236-.4075-1.99-1.2632-2.231-2.7368ZM196.337 33.0201c.038-.163.058-.5127.191-.8149.978-2.2275 2.753-3.6197 5.001-4.2886.666-.197 1.691.1562 2.302.601.764.5535 1.338 1.4126 1.871 2.2241.571.8693.157 1.7487-.343 2.4992-1.079 1.6264-2.492 2.859-4.41 3.4363-2.258.6825-4.632-1.1002-4.612-3.6571Zm1.342 1.7012c.203.0917.305.1562.417.1868.116.0305.245.0543.364.0407 2.519-.2784 4.468-1.5212 5.833-3.6264.717-1.107.265-1.7827-1.083-1.7658-.272.0034-.567.0476-.808.1631-1.766.8319-3.212 2.0509-4.248 3.7147-.234.3735-.316.8387-.475 1.2869Z" fill="#000"/></g></svg>