<svg id="Layer_1" data-name="Layer 1" xmlns="http://www.w3.org/2000/svg" viewBox="0 0 628 262" data-testid="AssetSvg" class="Asset_imgFluid__3h1VT img-fluid imgFluid" aria-label="SG Team Thumb R"><defs><style>.cls-5{fill:#ad780d}</style><mask id="mask" x="0" y="0" width="628" height="318.36" maskUnits="userSpaceOnUse"><path style="fill:#acc0ff" d="M0 0h628v262H0z" id="mask0"/></mask></defs><path style="fill:#a0b7ff" d="M0 0h628v262H0z"/><g style="mask:url(#mask)"><path d="m300.58 239.47-11.11-.68c-.33 0-.67-.09-1-.09-12.91-.13-25.81-.21-38.71-.39-3.69-.05-7.38-.35-11.06-.62a3.05 3.05 0 0 1-1.59-.82c-9.77-8.17-19.45-16.46-29.31-24.51-6.73-5.48-13.72-10.63-20.55-16a2.68 2.68 0 0 1-1-1.83c.25-6 .62-11.93 1-17.89.13-2.35.24-4.69.34-7 .13-3.36.2-6.71.36-10.07q.47-10.29 1-20.59c.21-4.07.44-8.14.66-12.21.34-6.41.66-12.83 1-19.24.2-3.79.41-7.58.67-11.36.42-6.23.9-12.46 1.32-18.69.16-2.34.24-4.69.35-7 .12-2.51.2-5 .37-7.53 0-.38.44-1 .73-1a36 36 0 0 1 3.75-.08c6.84 0 13.7-.07 20.54-.07s13.9.06 20.85 0c1.56 0 3.13-.42 4.68-.38 4.67.13 9.34.43 14 .58 2.86.09 5.72 0 8.57 0h.84c6.92.29 13.84.63 20.76.87 2.51.09 5-.12 7.54-.12 2.78 0 5.56.11 8.34.16h5c10.31.2 20.62.43 30.94.59s20.53.18 30.8.34c5.16.08 10.33.61 15.46.36a12.46 12.46 0 0 1 7 2c6.11 3.42 12.46 6.38 18.32 10.31 11.76 7.87 23.72 15.45 35.7 23 1.79 1.13 1.95 2.41 1.79 4.1-.33 3.38-.7 6.75-1 10.13q-.71 8-1.32 16c-.27 3.38-.42 6.78-.7 10.16-.4 4.76-.89 9.5-1.31 14.26-.26 3-.46 6.11-.71 9.15-.43 5.2-.89 10.41-1.32 15.61-.13 1.55-.27 3.11-.35 4.66-.24 4.34-.45 8.69-.68 13s-.46 8.58-.66 12.86c-.25 5.13-.42 10.27-.71 15.39-.16 2.66-.5 5.31-.77 8.14h-4.81c-9.36-.11-18.73-.3-28.1-.31-6.78 0-13.57.19-20.36.33-2.35.05-4.7.24-7.05.29a2.3 2.3 0 0 1-1.49-.48c-4.44-3.92-8.75-8-13.27-11.83-6-5.08-12.09-10-18.2-14.94-4.68-3.78-9.45-7.44-14.14-11.19a1.83 1.83 0 0 1-.4-1.4c.34-3.08.76-6.14 1.16-9.21.44-3.29.91-6.57 1.31-9.86.27-2.31.51-4.64.69-7 .27-3.55.44-7.12.71-10.68.09-1.26-.41-1.62-1.64-1.65a30.71 30.71 0 0 0-8.18 1.15 22.08 22.08 0 0 0-14.79 11.67 53.41 53.41 0 0 0-4.3 12.14c-1.17 5-1.74 10.11-2.43 15.2-.66 4.84-1.17 9.71-1.64 14.57-.25 2.61-.28 5.25-.41 7.88-.34 6.69-.66 13.37-1 20.06a8.22 8.22 0 0 1-.48 1.76Z" style="fill:#fff"/><path class="cls-5" d="M193.46 63.1c4.76 3.59 9.19 7.27 13.95 10.46 9 6.07 18.22 11.94 27.44 17.72 2.4 1.5 5.22 2.3 7.73 3.64.56.31.88 1.56.85 2.36-.09 2.36-.45 4.71-.64 7.07-.08 1 0 2 0 3-.1 6.56-.17 13.12-.35 19.68-.15 5.42-.44 10.84-.65 16.26q-.35 8.55-.68 17.1c-.23 6-.45 12.08-.67 18.11-.23 6.44-.41 12.87-.69 19.31-.29 7-.65 14-1 20.94q-.28 5.59-.67 11.19a59.08 59.08 0 0 1-.66 5.93c-.12.66-.83 1.21-1.28 1.81l-1.39-1.17-6.57-5.44c-3.05-2.52-6.12-5-9.15-7.57q-6.23-5.19-12.41-10.43-4.86-4.12-9.67-8.3c-3-2.64-6-5.34-9-8a2.59 2.59 0 0 1-1-2.3c.33-7.84.41-15.68.66-23.51.14-4.53.43-9.05.65-13.58l1-21c.22-4.35.45-8.71.66-13.07q.53-10.65 1-21.29c.22-4.48.46-8.94.66-13.42.35-7.66.66-15.33 1.05-23a11.15 11.15 0 0 1 .83-2.5ZM378.22 233.83c-1-.76-2-1.43-2.92-2.23-3.94-3.44-7.83-7-11.79-10.4-4.42-3.82-8.88-7.59-13.34-11.37s-8.74-7.4-13.13-11.07a16.13 16.13 0 0 0-2.91-2.2c-2.83-1.4-2.57-3.87-2.39-6.33.16-2 .46-4 .63-6 .48-5.55.86-11.1 1.39-16.64.35-3.7.87-7.38 1.32-11.07a2.7 2.7 0 0 1 2.8-2.06c2.83.24 5.67.41 8.5.68 7.43.69 14.56 1.91 20.9 6.54 4.42 3.22 8.82 6.35 11.08 11.39a63.65 63.65 0 0 1 3.79 11.93 44.79 44.79 0 0 1 .73 9.13c.05 3.24-.21 6.48-.33 9.72-.11 2.84-.12 5.69-.33 8.53-.45 6.17-.72 12.39-2.75 18.34-.29.83-.46 1.71-.7 2.56-.05.1-.22.2-.55.55Z"/><path d="M445.79 150.31c2 4.11 4 8 5.78 12.09 3 7 5.75 14.22 8.79 21.27a95.83 95.83 0 0 0 5.75 11.57 15.3 15.3 0 0 0 4.85 4.54c4 2.58 8.11 4.89 12.2 7.27q13.36 7.75 26.75 15.47a4 4 0 0 0 .81.17c-.93-1.61-1.81-2.94-2.52-4.37q-5.54-11.12-11-22.28c-4-8.21-7.86-16.47-11.85-24.68-5.23-10.73-10.47-21.46-15.81-32.13-4.52-9-9.18-18-13.84-26.92-2.27-4.36-4.7-8.64-7.3-13.39-.23 2.54-1.53 3.13-3.45 3.08-6.55-.14-13.11 0-19.65-.36-6.2-.33-12.36-1.24-18.55-1.68-7.15-.52-14.31-.86-21.46-1.2-15.78-.74-31.54-.52-47.33-.1-7.27.2-14.56-.11-21.84-.15-7.72 0-15.47-.42-23.15.08-7.08.45-14-1.11-21-1.07-6.38 0-12.76 0-19.14-.14-2.51 0-5-.39-7.75-.63-1.94 26.22-3.86 52.32-5.82 78.75 2.65 1 5.6 2 8.52 3.08 4.28 1.64 8.59 3.23 12.78 5.08 1.23.55 2.68 1.31 2.56 3.38-.29 5-.2 10-.45 14.92-.44 8.62-1.18 17.22-1.51 25.84-.37 9.51-.38 19-.66 28.57-.24 8-.64 16-1 24a23.06 23.06 0 0 1-.69 3.94c-.06.31-.45.62-.76.77-5.14 2.51-10.22 5.16-15.44 7.45-8.84 3.87-17.74 7.58-26.66 11.23q-10.66 4.37-21.45 8.42c-3.19 1.2-6.55 1.91-9.77 3a19.44 19.44 0 0 0-3.5 2.1c-1.11.7-2 1.49-3.61.75-8.19-3.76-16.41-7.47-24.73-10.95-7-2.93-14.25-5.38-21.28-8.31-6.87-2.86-13.59-6.08-20.4-9.08-3.63-1.61-7.44-2.88-10.94-4.72A7.42 7.42 0 0 1 96 277.8c.2-6.82-.08-13.65.1-20.48.23-8.5.73-17 1.13-25.5.26-5.65.49-11.3.83-17 .38-6.3.9-12.6 1.27-18.91.27-4.69.12-9.39 1.25-14 .36-1.5.92-1.95 2.41-1.72a5.43 5.43 0 0 0 2.58-.28c7.73-2.83 15.41-5.82 23.16-8.59 12.13-4.33 24.29-8.55 36.45-12.78 3.11-1.09 6.26-2.06 9.4-3.08 1.22-.39 2.29-.87 3.64.18 1 .81 2.63.86 3.95 1.33 4.16 1.48 8.25 3.2 12.48 4.45 8.59 2.55 17.27 4.76 25.85 7.31 4.6 1.38 9.08 3.17 13.62 4.78.68.24 1.35.51 2.21.84a12 12 0 0 0 .43-1.81c.15-2.4.21-4.81.38-7.21.33-4.52.74-9 1.05-13.56.46-6.53.82-13.07 1.31-19.59.55-7.32 1.24-14.63 1.8-22 .27-3.52.16-7.08.66-10.56.36-2.53-.11-4-2.47-5.31-4.34-2.44-8.36-5.44-12.64-8-11.09-6.67-22.25-13.22-33.36-19.85-.6-.35-1-1.1-1.43-1.66l.45-.65a19.35 19.35 0 0 1 3.05 1c4.09 2.09 8.18 4.17 12.17 6.44 5.93 3.38 11.81 6.88 17.65 10.41 5.62 3.43 11.13 7 16.74 10.33a7.18 7.18 0 0 0 3.32 1c7.94.25 15.89.35 23.83.56 3.64.09 7.27.33 10.9.47 5.14.19 10.28.46 15.43.51 7.94.08 15.89 0 23.83 0 20.87.09 41.75 0 62.61.4 11 .2 21.9 1.26 32.86 1.83 8.89.46 17.78.77 26.67 1.16 1.57.07 3.13.26 4.69.38h1.86c-1.5-2.72-2.84-5.16-4.19-7.59q-6.65-12-13.31-24c-3.8-6.86-7.78-13.63-11.23-20.67a7.37 7.37 0 0 0-5.05-4.19c-9-2.82-18-5.88-27-8.76-3.78-1.21-7.64-2.19-11.48-3.26-.74-.2-1.5-.32-2.62-.56.92 1.77 1.72 3.22 2.43 4.71 2.2 4.54 4.25 9.15 6.57 13.62 2.52 4.87 5.31 9.61 7.92 14.43a9.62 9.62 0 0 1 .85 2.71c.26 1.31-.59 1.79-1.92 2-1.66-2.89-3.49-5.77-5-8.81-2.75-5.51-5.34-11.12-8-16.69-1.74-3.7-3.4-7.45-5.15-11.14-.79-1.65-.41-3 .84-4.53 4.38 1.21 8.87 2.32 13.29 3.7 6.35 2 12.62 4.21 19 6.22q9.1 2.88 18.28 5.53c8.44 2.42 16.91 4.74 25.38 7.07 9.77 2.67 19.62 5 29.3 8 10.27 3.15 20.41 6.74 30.54 10.32 8.27 2.93 16.44 6.17 24.68 9.22 1.32.5 1.83 1 1.63 2.63-1.61 13.12-3 26.27-4.56 39.41-1.42 12.41-2.91 24.82-4.3 37.24-1.52 13.53-2.87 27.08-4.45 40.6-1.18 10.18-2.59 20.33-3.9 30.49-.16 1.2.28 2.73-1.66 2.91a1.72 1.72 0 0 1-.94-.07q-18.14-10.68-36.24-21.42c-1.77-1.06-3.39-2.39-5.12-3.52-2.47-1.61-4.95-3.23-7.49-4.72a4.64 4.64 0 0 1-2.32-2.79c-.76-2.26-2.22-4.27-3.17-6.48q-3-7-5.86-14.11-3.92-9.86-7.67-19.76c-.64-1.69-1.71-3.36-.91-5.31.11-.14.27-.37.5-.76ZM103.54 183.8c-.11.82-.21 1.25-.23 1.7q-.57 8.88-1.11 17.75c-.66 10.63-1.6 21.24-1.88 31.87-.37 14.55-.26 29.11-.31 43.66a3.45 3.45 0 0 0 2.57 3.75 87.11 87.11 0 0 1 8.17 3.06c9.07 3.85 18 8 27.17 11.61 11.53 4.51 23.19 8.67 34.28 14.22 1.91 1 3.94 1.68 5.93 2.51.38-7.51.57-14.79 1.16-22 .74-9.2 1.74-18.39 2.78-27.57.87-7.68 2-15.34 2.93-23 .79-6.22 1.52-12.46 2.27-18.68.23-1.89.5-3.78.62-5.68a1.75 1.75 0 0 0-.79-1.36c-3.94-1.75-7.9-3.46-11.89-5.09-9.08-3.7-18.12-7.52-27.29-11-11.79-4.44-23.7-8.59-35.56-12.82-2.84-1.05-5.72-1.92-8.82-2.93Zm318.84-139 2.56 4.43c4.35 7.63 8.76 15.24 13 22.91 3.35 6 6.52 12.15 9.83 18.19 5.24 9.59 10.69 19.06 15.76 28.73 4.95 9.47 9.54 19.13 14.27 28.71 6 12.1 12 24.15 17.83 36.34 3.8 8 7.12 16.2 10.81 24.24 2.3 5 4.91 9.9 7.56 15.2q8.79-72.55 17.37-143.73c-17.67-7.5-35.37-14.33-53.63-19.53S441.12 50 422.38 44.78ZM260 189.57c-1.95.72-3.61 1.36-5.29 2-10.32 3.59-20.59 7.28-30.95 10.71-10.54 3.48-20.77 7.72-31 12.08a2.49 2.49 0 0 0-1.75 2.46c-.66 8.31-1 16.69-2.26 24.9-2.08 13.2-3 26.5-4.29 39.76-.71 7.13-1.33 14.28-1.95 21.43-.31 3.67-.53 7.34-.81 11.35a28.23 28.23 0 0 1 4.69-1.82c4.64-.84 8.85-2.76 13.1-4.66 5.36-2.4 10.87-4.5 16.25-6.88 3.94-1.75 7.73-3.85 11.68-5.56q12.79-5.58 25.69-10.89a3 3 0 0 0 2.12-3.3c-.07-3.19-.09-6.4.06-9.58.33-6.88.86-13.75 1.19-20.63.63-13 1.1-26.08 1.81-39.12.37-6.65 1.11-13.29 1.67-19.93.09-.71.04-1.36.04-2.32Zm-150.58-7.91v.37c8 2.79 16 5.47 23.9 8.39 11 4.06 22 8.25 33 12.47 6.84 2.63 13.61 5.44 20.43 8.13a4.43 4.43 0 0 0 2.56.48c3.38-1 6.74-2 10-3.31 6.62-2.56 13.14-5.41 19.79-7.9 10.47-3.94 21-7.69 31.54-11.49 2.39-.86 4.82-1.59 7.64-2.51-1-.45-1.48-.74-2-1-6.78-2.65-13.57-5.27-20.33-8-9.17-3.65-18.71-6.14-28.18-8.84-5.7-1.62-11.46-3.09-17.08-4.94-4.42-1.44-8.65-3.4-13-5a3.34 3.34 0 0 0-2.18.08c-3.92 1.5-7.73 3.29-11.71 4.59-6.74 2.21-13.62 4-20.39 6.21-6.07 1.95-12.08 4.1-18.08 6.27-5.33 1.96-10.61 4.01-15.9 6Z"/><path d="M337.7 156.15c1.58-1.69 3.41-1.58 5.09-1.7a63.85 63.85 0 0 1 15.56.61c3.57.62 6.47 2.41 9.28 4.48s5.71 3.68 7.93 6.1c4.31 4.69 6.15 10.69 7.63 16.8 1.95 8 1.78 16.19.87 24.27s-2.49 15.93-3.92 23.87c-.23 1.32-1.16 2.52-1.78 3.77l-.57-.24 1.3-7c2-10.25 3.64-20.54 3.23-31a58.25 58.25 0 0 0-3.32-16.27 38.39 38.39 0 0 0-6.41-11.92 21.92 21.92 0 0 0-4.28-4c-5.73-4.14-11.69-7.76-19.17-7.54-3.06.09-6.12 0-9.18 0-.67-.05-1.33-.15-2.26-.23Z"/></g></svg>